<svg id="Capa_1" data-name="Capa 1" xmlns="http://www.w3.org/2000/svg" viewBox="0 0 42.51 47"><title>lightbulb</title><g id="Layer_1" data-name="Layer 1"><path d="M23.5,7.23A14.09,14.09,0,0,0,9.2,21.06a16.44,16.44,0,0,0,3.49,10.05c.91,1.33,1.42,2.13,1.42,2.93a6,6,0,0,0,2.67,4.75c0,1.06.2,3.66.2,3.66h0c0,.74.42,2.25,3,3.09a4.27,4.27,0,0,0,1.17,1.15,1.8,1.8,0,0,0,1,.31h2.76a1.72,1.72,0,0,0,1-.31,4.14,4.14,0,0,0,1.17-1.15c2.57-.85,2.94-2.38,3-3.1,0,0,.16-2.59.2-3.65A6,6,0,0,0,32.89,34c0-.8.51-1.6,1.43-2.94a16.4,16.4,0,0,0,3.48-10A14.09,14.09,0,0,0,23.5,7.23Zm7.83,21.85c-1.06,1.54-2.06,3-2.06,5a2.68,2.68,0,0,1-1.35,2H19.08a2.7,2.7,0,0,1-1.35-2c0-1.95-1-3.42-2.07-5a13,13,0,0,1-2.84-8A10.46,10.46,0,0,1,23.5,10.85a10.46,10.46,0,0,1,10.68,10.2A13,13,0,0,1,31.33,29.08Z" transform="translate(-2.25)"/><path d="M23.5,4.52a.9.9,0,0,0,.9-.9V.9a.9.9,0,1,0-1.8,0V3.62A.9.9,0,0,0,23.5,4.52Z" transform="translate(-2.25)"/><path d="M13.9,6.43a.9.9,0,0,0,.78.45.9.9,0,0,0,.78-1.35L14.11,3.18a.91.91,0,0,0-1.24-.33.9.9,0,0,0-.33,1.23Z" transform="translate(-2.25)"/><path d="M8.68,11.65,6.33,10.3a.91.91,0,0,0-1.24.33.9.9,0,0,0,.33,1.23l2.35,1.36a.92.92,0,0,0,.45.12.91.91,0,0,0,.46-1.69Z" transform="translate(-2.25)"/><path d="M6.76,21.25a.9.9,0,0,0-.9-.9H3.15a.91.91,0,0,0,0,1.81H5.86A.9.9,0,0,0,6.76,21.25Z" transform="translate(-2.25)"/><path d="M7.77,29.29,5.42,30.65a.9.9,0,0,0,.46,1.68,1,1,0,0,0,.45-.12l2.35-1.35a.91.91,0,1,0-.91-1.57Z" transform="translate(-2.25)"/><path d="M41.58,30.65l-2.35-1.36a.9.9,0,1,0-.9,1.57l2.34,1.35a.85.85,0,0,0,.45.12.9.9,0,0,0,.46-1.68Z" transform="translate(-2.25)"/><path d="M43.85,20.35H41.14a.91.91,0,0,0,0,1.81h2.71a.91.91,0,1,0,0-1.81Z" transform="translate(-2.25)"/><path d="M38.78,13.34a.92.92,0,0,0,.45-.12l2.35-1.36a.9.9,0,0,0,.33-1.23.91.91,0,0,0-1.24-.33l-2.34,1.35A.9.9,0,0,0,38,12.89.92.92,0,0,0,38.78,13.34Z" transform="translate(-2.25)"/><path d="M31.87,6.76a.92.92,0,0,0,.45.12.89.89,0,0,0,.78-.45l1.36-2.35a.9.9,0,0,0-.33-1.23.91.91,0,0,0-1.24.33L31.54,5.53A.9.9,0,0,0,31.87,6.76Z" transform="translate(-2.25)"/></g></svg>