<?xml version="1.0" encoding="utf-8"?>
<!-- Generator: Adobe Illustrator 22.1.0, SVG Export Plug-In . SVG Version: 6.00 Build 0)  -->
<svg version="1.1" id="Capa_1" xmlns="http://www.w3.org/2000/svg" xmlns:xlink="http://www.w3.org/1999/xlink" x="0px" y="0px"
	 viewBox="0 0 512 512" style="enable-background:new 0 0 512 512;" xml:space="preserve">
<style type="text/css">
	.st0{fill:#FFFFFF;}
</style>
<g>
	<g>
		<path class="st0" d="M498.8,397.9L414,313.1c-17.6-17.6-46-17.6-63.6,0l-21.2,21.2c-17.5,17.5-46.1,17.5-63.7-0.1l-88.8-87.6
			c-17.5-17.5-17.5-46.1,0-63.6l21.2-21.2c17.5-17.5,17.5-46.1,0-63.6L113,13.3c-17.5-17.6-46-17.6-63.6,0L28.2,34.5
			C0.7,62-7.4,122.7,7.1,192.9c9.2,44.7,35.8,130.8,110,205c74.1,74.1,159.5,99.5,203.8,108c48.7,9.4,121.9,11.6,156.8-23.2
			l21.2-21.2C516.4,444,516.4,415.4,498.8,397.9z M70.6,34.5c5.8-5.8,15.4-5.8,21.2,0l84.8,84.8c5.8,5.8,5.8,15.4,0,21.2L166,151.1
			L60.1,45L70.6,34.5z M326.6,476.5c-40.9-7.9-119.9-31.4-188.3-99.8C69.6,308,45,228.2,36.5,186.8c-11.3-54.9-6.6-96.1,4.4-118.6
			L146,173.3c-19.3,29.1-16.1,68.8,9.6,94.5l88.8,87.6c25.6,25.6,65.3,28.8,94.4,9.5L444,470.2C411.9,486.4,362.1,483.3,326.6,476.5
			z M477.6,440.3L467,450.9l-106-106l10.6-10.6c5.9-5.9,15.3-5.9,21.2,0l84.8,84.8C483.5,424.9,483.5,434.5,477.6,440.3z"/>
	</g>
</g>
<g>
	<g>
		<path class="st0" d="M287,0.1c-8.3,0-15,6.7-15,15s6.7,15,15,15c107.5,0,195,87.5,195,195c0,8.3,6.7,15,15,15s15-6.7,15-15
			C512,101,411.1,0.1,287,0.1z"/>
	</g>
</g>
<g>
	<g>
		<path class="st0" d="M287,60.1c-8.3,0-15,6.7-15,15s6.7,15,15,15c74.4,0,135,60.5,135,135c0,8.3,6.7,15,15,15s15-6.7,15-15
			C452,134.1,378,60.1,287,60.1z"/>
	</g>
</g>
<g>
	<g>
		<path class="st0" d="M287,120.1c-8.3,0-15,6.7-15,15s6.7,15,15,15c41.3,0,75,33.6,75,75c0,8.3,6.7,15,15,15s15-6.7,15-15
			C392,167.2,344.9,120.1,287,120.1z"/>
	</g>
</g>
<g>
	<g>
		<path class="st0" d="M287,180.1c-8.3,0-15,6.7-15,15s6.7,15,15,15s15,6.7,15,15s6.7,15,15,15s15-6.7,15-15
			C332,200.3,311.8,180.1,287,180.1z"/>
	</g>
</g>
</svg>
